# xmcd
#
# Track frame offsets:
#       150
#       27829
#       45284
#       74582
#       93602
#       116012
#       148189
#       165621
#       186835
#       214386
#       236666
#       252718
#       273721
#
# Disc length: 3883 seconds
#
# Revision: 1
# Processed by: cddbd v1.4PL0 Copyright (c) Steve Scherf et al.
# Submitted via: MusiCat 1.1
#
DISCID=cd0f290d
DTITLE=Perry Blake - Still Life
DYEAR=1900
DGENRE=
TTITLE0=Sandriam
TTITLE1=This Time It's Goodbye
TTITLE2=Leave It All Behind
TTITLE3=No Lullabies
TTITLE4=If I Let You In
TTITLE5=Bury Me With Her (Julia)
TTITLE6=Still Lives
TTITLE7=Friend (You've Been Whispering Again)
TTITLE8=War In France
TTITLE9=Stop Breathing
TTITLE10=Driftwood
TTITLE11=Give Me Back My Childhood
TTITLE12=Wise Man's Blues
EXTD=0\n\n\n
EXTT0=
EXTT1=
EXTT2=
EXTT3=
EXTT4=
EXTT5=
EXTT6=
EXTT7=
EXTT8=
EXTT9=
EXTT10=
EXTT11=
EXTT12=
PLAYORDER=
